# xmcd
#
# Track frame offsets:
#	150
#	17746
#	34037
#	51757
#	70873
#	85148
#	105455
#	121732
#	142123
#	160209
#	177805
#	194096
#	211816
#	230932
#	245207
#	265514
#	281791
#	302182
#
# Disc length: 4270
#
# Revision: 2
# Processed by: cddbd v1.5.2PL0 Copyright (c) Steve Scherf et al.
# Submitted via: kJams Pro (development) 1.0patch45.20
#
DISCID=0710ac12
DTITLE=Various Artist - NSC 3043
DYEAR=2004
DGENRE=Country
TTITLE0=Gary Allan - Tough Little Boys
TTITLE1=Patty Loveless - Loving All Night
TTITLE2=Rascal Flatts - I Melt
TTITLE3=Rodney Atkins - Honesty (Write Me A List)
TTITLE4=Diamond Rio - Wrinkles
TTITLE5=Montgomery Gentry - Hell Yeah
TTITLE6=Billy Currington - Walk A Little Straighter
TTITLE7=Blake Shelton - Playboys Of The Southwestern World
TTITLE8=Chris Cagle - Chicks Dig It
TTITLE9=Gary Allan - Vocals - Tough Little Boys
TTITLE10=Patty Loveless - Vocals - Loving All Night
TTITLE11=Rascal Flatts - Vocals - I Melt
TTITLE12=Rodney Atkins - Vocals - Honesty (Write Me A List)
TTITLE13=Diamond Rio - Vocals - Wrinkles
TTITLE14=Montgomery Gentry - Vocals - Hell Yeah
TTITLE15=Billy Currington - Vocals - Walk A Little Straighter
TTITLE16=Blake Shelton - Vocals - Playboys Of The Southwestern World
TTITLE17=Chris Cagle - Vocals - Chicks Dig It
EXTD=
EXTT0=
EXTT1=
EXTT2=
EXTT3=
EXTT4=
EXTT5=
EXTT6=
EXTT7=
EXTT8=
EXTT9=
EXTT10=
EXTT11=
EXTT12=
EXTT13=
EXTT14=
EXTT15=
EXTT16=
EXTT17=
PLAYORDER=
